<svg xmlns="http://www.w3.org/2000/svg" viewBox="0 0 32 32" fill="none">
  <rect width="32" height="32" rx="8" fill="#2563eb"/>
  <path stroke="#ffffff" stroke-linecap="round" stroke-linejoin="round" stroke-width="2"
    d="M8 10.147a60 60 0 00-.491 6.347A48.6 48.6 0 0116 20.904a48.6 48.6 0 018.232-4.41A60 60 0 0023.75 10.147m-15.5 0a50.6 50.6 0 00-2.658-.813A59.9 59.9 0 0116 3.493a59.9 59.9 0 0110.399 5.84c-.896.248-1.783.52-2.658.814m-15.5 0A50.7 50.7 0 0116 13.489a50.7 50.7 0 017.74-3.342M10.75 15a.75.75 0 100-1.5.75.75 0 000 1.5zm0 0v-3.675A55.4 55.4 0 0116 8.443m-5.25 11.55A5.98 5.98 0 0010.75 15.75v-1.5"/>
</svg>
